<svg width="26" height="17" viewBox="0 0 26 17" fill="none" xmlns="http://www.w3.org/2000/svg">
<path d="M8.03346 12.3916C10.1621 12.3936 12.0847 11.6592 13.442 10.5093C14.8087 9.35262 15.5706 7.83998 15.5672 6.27413C15.5706 4.70684 14.809 3.19278 13.442 2.03634C12.0847 0.889056 10.1624 0.153194 8.03346 0.15491C5.90369 0.153194 3.98107 0.889056 2.62264 2.03634C1.25706 3.19278 0.495159 4.70684 0.500023 6.27413C0.495159 7.83998 1.25706 9.35262 2.62264 10.5093C3.98107 11.6595 5.90369 12.3936 8.03346 12.3916Z" fill="#21C013"/>
<path d="M5.64844 12.8722L5.67962 12.9165L5.68563 12.9377C5.7646 13.0708 5.83298 13.2098 5.88819 13.3546H5.91823L5.97803 13.6206H10.0115C10.0785 13.3643 10.1803 13.1237 10.3277 12.8865C9.59812 13.0184 8.82907 13.0916 8.0337 13.0916C7.20342 13.0916 6.40318 13.0147 5.64844 12.8722Z" fill="#21C013"/>
<path d="M5.16584 13.8737C5.12035 13.6797 5.04339 13.5009 4.93696 13.3301L4.90349 13.2763L4.90234 13.2737C4.89633 13.2631 4.88918 13.2534 4.88346 13.2448C4.86543 13.2268 4.84998 13.2067 4.83425 13.1839C4.8105 13.155 4.79133 13.1301 4.77216 13.1049C4.76959 13.1035 4.7673 13.102 4.76501 13.0989L4.74956 13.0843L4.73755 13.0711C4.71609 13.046 4.6932 13.0222 4.67174 13.0007C4.65972 12.9899 4.63083 12.9673 4.62253 12.9567C4.61166 12.9444 4.58677 12.9241 4.56359 12.9026L4.54214 12.892L4.50036 12.8583C4.46803 12.8308 4.42369 12.8008 4.36876 12.7639C4.33271 12.7447 4.30753 12.7289 4.28722 12.7184C4.26089 12.7041 4.25489 12.7003 4.25489 12.7003L4.23801 12.6932L4.21998 12.6837C4.19366 12.6692 4.16619 12.656 4.16362 12.6537C4.14216 12.6468 4.12871 12.6394 4.12271 12.638L4.09381 12.6311L4.05805 12.6142C4.04603 12.6082 4.03058 12.6033 3.9911 12.589C3.97679 12.583 3.96478 12.5805 3.95505 12.577L3.92157 12.571L3.88924 12.5579C3.88924 12.5601 3.88924 12.5579 3.82716 12.5456C3.78739 12.5361 3.76221 12.529 3.76107 12.529C3.74076 12.5238 3.70614 12.5204 3.66894 12.5155C3.64863 12.5132 3.63318 12.5107 3.62231 12.5086H3.61258L3.58626 12.5061C3.54449 12.5001 3.49871 12.4992 3.42919 12.4992C3.36224 12.4992 3.31188 12.5004 3.2724 12.5061L3.24837 12.5086H3.23778C3.23063 12.5109 3.2209 12.5121 3.20803 12.5135C3.15281 12.5204 3.11218 12.5252 3.1036 12.5278C3.10131 12.5278 3.07985 12.535 3.01605 12.5493C2.96942 12.5587 2.95397 12.5639 2.95139 12.5639L2.93337 12.5699L2.91906 12.575C2.89989 12.5785 2.87958 12.5856 2.88444 12.583C2.85326 12.5953 2.83294 12.6022 2.82093 12.6056L2.81864 12.6071L2.77315 12.6285L2.73824 12.638C2.73824 12.638 2.73824 12.638 2.73338 12.6394C2.72623 12.642 2.71535 12.6474 2.70448 12.6514C2.69619 12.6551 2.67473 12.666 2.64955 12.6789L2.6218 12.6958L2.59662 12.7043C2.59176 12.7078 2.57745 12.7149 2.57402 12.7161C2.55227 12.7307 2.52481 12.7473 2.50078 12.7604C2.44098 12.7976 2.39406 12.8311 2.35458 12.862L2.32825 12.8837L2.31137 12.892C2.28162 12.9184 2.25616 12.9398 2.23699 12.9555C2.21896 12.9747 2.20466 12.9864 2.19607 12.9939L2.19264 12.9962C2.17948 13.0082 2.16289 13.0271 2.12197 13.0743L2.09308 13.1052L2.0822 13.112C2.05932 13.1387 2.03671 13.1673 2.0164 13.1947L2.01154 13.2007L1.99723 13.2211C1.97348 13.2519 1.94573 13.2917 1.91226 13.3406L1.92055 13.3301C1.81384 13.5003 1.7383 13.6785 1.69053 13.8785C1.65963 14.0116 1.6416 14.146 1.6416 14.2836C1.64275 15.2733 2.44298 16.0732 3.4289 16.0755C4.41739 16.0732 5.21505 15.2733 5.21849 14.2836C5.21849 14.1795 5.20647 14.0739 5.1873 13.9664L5.16584 13.8737Z" fill="#21C013"/>
<path d="M20.2627 13.3405C20.266 13.3362 20.267 13.3345 20.27 13.3302L20.2627 13.3405Z" fill="#21C013"/>
<path d="M23.5163 13.8736C23.4708 13.6797 23.3941 13.5008 23.2863 13.33L23.254 13.2763L23.2528 13.2725C23.2442 13.2617 23.2385 13.2508 23.2314 13.2428C23.2156 13.2256 23.2013 13.2079 23.187 13.1864C23.1618 13.1567 23.1415 13.1303 23.1209 13.1037C23.1198 13.1023 23.1186 13.1014 23.1161 13.0989L23.0995 13.084L23.0874 13.0708C23.0648 13.0434 23.0397 13.0182 23.0168 12.9953C23.0036 12.9847 22.9799 12.9655 22.9736 12.9561C22.9607 12.9438 22.9367 12.9235 22.9126 12.902L22.8912 12.8926L22.8517 12.8577C22.8194 12.8316 22.7762 12.8016 22.7235 12.7667C22.6852 12.7467 22.6589 12.7298 22.636 12.7178C22.6119 12.702 22.6059 12.6998 22.6059 12.6998L22.5868 12.6912L22.5699 12.6832C22.5436 12.6686 22.5161 12.6543 22.5135 12.6543C22.4943 12.646 22.4812 12.6397 22.4752 12.6371L22.444 12.6302L22.4082 12.6133C22.3962 12.6073 22.3805 12.6025 22.3413 12.5867C22.327 12.5833 22.315 12.5796 22.3041 12.5762L22.2732 12.5701L22.2409 12.5578C22.2386 12.5593 22.2409 12.557 22.1773 12.5447C22.1379 12.5367 22.1124 12.5289 22.1115 12.5289C22.0912 12.5241 22.0577 12.5195 22.0194 12.5132C21.9965 12.5109 21.9785 12.5086 21.9702 12.5075H21.9619L21.9356 12.5049C21.8947 12.4989 21.8492 12.498 21.7808 12.498C21.7127 12.498 21.6621 12.4992 21.6229 12.5049L21.5965 12.5075H21.5894C21.5834 12.5086 21.5725 12.5098 21.5568 12.5124C21.503 12.5192 21.4612 12.5241 21.4541 12.5267C21.4518 12.5267 21.43 12.5338 21.3677 12.5495C21.3199 12.5576 21.3041 12.5613 21.3019 12.5627L21.2838 12.5699L21.2695 12.5721C21.2506 12.577 21.2315 12.5842 21.2349 12.5816C21.2037 12.5939 21.1834 12.6008 21.1714 12.6042L21.1691 12.6056L21.1253 12.6288L21.087 12.6371C21.081 12.6397 21.0678 12.6457 21.0547 12.6505C21.0475 12.6543 21.0246 12.6651 20.9997 12.6794L20.9723 12.6937L20.9459 12.7043C20.9388 12.7083 20.9279 12.7152 20.9245 12.7152C20.9027 12.7284 20.8753 12.7464 20.8515 12.7595C20.7926 12.7967 20.7448 12.8288 20.7053 12.8611L20.6764 12.8837L20.6633 12.8912C20.6332 12.9186 20.6083 12.9389 20.5889 12.9547C20.5734 12.9701 20.56 12.981 20.552 12.9879L20.5434 12.995C20.5314 13.007 20.5145 13.0259 20.4727 13.0731L20.443 13.1066L20.4332 13.1123C20.4104 13.1389 20.3878 13.1664 20.3663 13.193L20.3626 13.1987L20.3483 13.219C20.3268 13.2491 20.3005 13.2863 20.2716 13.3295C20.1637 13.5006 20.0893 13.6779 20.0427 13.8779C20.0092 14.011 19.9924 14.1454 19.9912 14.2831C19.9935 15.2727 20.7937 16.0726 21.7808 16.0735C22.7679 16.0726 23.5658 15.2727 23.5692 14.2831C23.5692 14.1789 23.5572 14.0733 23.5383 13.9658L23.5163 13.8736Z" fill="#21C013"/>
<path d="M22.6219 4.75403H19.7099H18.922H18.3086V13.6124H14.2032C14.1637 13.5157 14.1157 13.421 14.0582 13.33L14.0258 13.2762L14.0236 13.2725C14.0175 13.2617 14.0104 13.2522 14.0044 13.2436C13.9875 13.2256 13.9706 13.2053 13.9563 13.1827C13.9326 13.1538 13.9131 13.1286 13.8928 13.1034C13.8917 13.102 13.8894 13.1011 13.8879 13.0986L13.8725 13.0854L13.8593 13.0708C13.8353 13.0434 13.8104 13.017 13.7864 12.9933C13.7732 12.9827 13.7518 12.9655 13.7446 12.9564C13.7337 12.9441 13.7088 12.9238 13.6848 12.9012L13.6645 12.8917L13.6227 12.858C13.5915 12.8319 13.5472 12.8005 13.4934 12.7661C13.4562 12.7458 13.431 12.7301 13.4081 12.7181C13.3844 12.7023 13.3784 12.7 13.3784 12.7L13.3592 12.6929L13.3423 12.6834C13.316 12.6688 13.2886 12.6545 13.286 12.6545C13.2642 12.6462 13.2514 12.6388 13.2451 12.6374L13.2162 12.6291L13.1804 12.6136C13.1684 12.6076 13.1529 12.6028 13.1135 12.5884C13.0991 12.5824 13.0883 12.5799 13.0763 12.5764L13.0451 12.5704L13.0127 12.5573C13.0116 12.5596 13.0127 12.5573 12.9492 12.545C12.9095 12.5355 12.8843 12.5284 12.8843 12.5284C12.8628 12.5232 12.8282 12.5198 12.7922 12.5149C12.7707 12.5126 12.755 12.5101 12.7455 12.5081H12.7344L12.708 12.504C12.6663 12.4995 12.6205 12.4972 12.551 12.4972C12.484 12.4972 12.4337 12.4998 12.3942 12.504L12.3679 12.5081H12.3596C12.3524 12.5103 12.3427 12.5115 12.3298 12.5129C12.2746 12.5198 12.234 12.5261 12.2257 12.5272C12.2234 12.5272 12.2016 12.5344 12.1381 12.5487C12.0915 12.5581 12.0746 12.5633 12.0746 12.5633L12.0554 12.5693L12.0411 12.5744C12.022 12.5779 12.0028 12.5839 12.0054 12.5824C11.9756 12.5947 11.9539 12.6005 11.9444 12.605L11.941 12.6065L11.8955 12.6291L11.8606 12.6374C11.8546 12.6388 11.8403 12.646 11.8257 12.6508C11.8197 12.6545 11.7968 12.6654 11.7719 12.6797L11.7442 12.694L11.7201 12.7037V12.7046C11.7133 12.7072 11.6998 12.7155 11.6975 12.7155C11.6746 12.7286 11.6472 12.7455 11.6231 12.7598C11.5645 12.797 11.5164 12.8291 11.4769 12.8614L11.4506 12.8831L11.4337 12.8914C11.404 12.9178 11.3785 12.9392 11.3593 12.9549C11.345 12.9704 11.3319 12.9813 11.3236 12.9881L11.315 12.9953C11.303 13.0073 11.2861 13.0262 11.2455 13.0722L11.2166 13.1057L11.2023 13.1152C11.1808 13.1403 11.1594 13.1681 11.1376 13.1933L11.135 13.2001L11.1193 13.2205C11.0967 13.2502 11.0704 13.2874 11.0403 13.3332C10.9348 13.5031 10.8607 13.6794 10.8129 13.8768C10.7806 14.011 10.7637 14.1451 10.7637 14.283C10.766 15.2713 11.5651 16.0726 12.551 16.0749C13.4771 16.0726 14.2281 15.3671 14.3214 14.4653H19.239V13.6204H19.2413C19.3093 13.3558 19.4149 13.1069 19.5683 12.8611V12.8623C19.5957 12.8205 19.6281 12.7738 19.6641 12.7258C19.6796 12.7006 19.681 12.7017 19.681 12.7017L19.6893 12.6874L19.6999 12.6751C19.7322 12.6334 19.7671 12.5902 19.822 12.5304C19.822 12.5304 19.822 12.5304 19.8318 12.5172C19.8404 12.5101 19.8509 12.4992 19.8641 12.486C19.8847 12.4634 19.9145 12.4299 19.9539 12.3902C19.9622 12.3833 19.9682 12.3759 19.9754 12.3701L19.9803 12.3627L20.0212 12.3292C20.0655 12.2912 20.0967 12.2669 20.1027 12.2589C20.1396 12.2251 20.1722 12.2013 20.1963 12.187C20.2692 12.1307 20.3413 12.0826 20.4131 12.0383C20.43 12.0288 20.4586 12.0094 20.5139 11.9782C20.5247 11.9733 20.5556 11.953 20.6134 11.9281C20.6457 11.9112 20.6841 11.8909 20.7356 11.8692C20.7453 11.8657 20.7713 11.8526 20.8231 11.8357C20.8841 11.8082 20.925 11.7977 20.9442 11.7891C20.9885 11.7733 21.0254 11.7639 21.0554 11.7567C21.1201 11.7353 21.1716 11.7278 21.1908 11.7233C21.1931 11.7233 21.222 11.7138 21.2746 11.703C21.3513 11.6864 21.4088 11.6815 21.452 11.6755C21.452 11.6778 21.4674 11.6703 21.5227 11.6672C21.6196 11.654 21.7061 11.6526 21.7813 11.6526C21.8543 11.6526 21.9346 11.6555 22.0256 11.6658C22.0542 11.6672 22.0771 11.6706 22.0914 11.6718C22.1035 11.6755 22.1034 11.6743 22.1178 11.6755C22.1561 11.6815 22.2113 11.6872 22.2891 11.703C22.3335 11.7124 22.3658 11.7221 22.3575 11.7201C22.3887 11.727 22.4402 11.7344 22.5109 11.7585C22.5478 11.7668 22.585 11.7776 22.6244 11.7919C22.6473 11.8002 22.6854 11.8134 22.7335 11.8337C22.7872 11.8503 22.8184 11.8672 22.8376 11.8743C22.8842 11.8946 22.9237 11.9155 22.9586 11.9318C23.0078 11.9544 23.039 11.975 23.0545 11.9833C23.0962 12.0074 23.1214 12.0231 23.1286 12.0254L23.1477 12.0351L23.1669 12.0483C23.2233 12.0852 23.2902 12.1284 23.3623 12.1848C23.3886 12.2016 23.4221 12.2245 23.4579 12.2569C23.4722 12.2712 23.4988 12.2926 23.5503 12.3418H23.5514C23.5586 12.3478 23.5778 12.363 23.6064 12.3907C23.6401 12.4245 23.6722 12.4577 23.7048 12.4926C23.7179 12.5058 23.7394 12.5261 23.7597 12.5524C23.8026 12.6028 23.8304 12.6388 23.847 12.6577L23.8507 12.6617L23.8556 12.6654L23.8676 12.682L23.8925 12.7109L23.8973 12.7218C23.9405 12.7801 23.9703 12.8293 23.992 12.8605L24.0318 12.918L24.0367 12.9381C24.1156 13.0702 24.184 13.209 24.2389 13.3549H24.269L24.3288 13.621H25.5004V8.99582L22.6219 4.75403ZM22.2971 5.36744L24.3445 8.3827H19.7099V5.36744H22.2971Z" fill="#21C013"/>
</svg>
